<?xml version="1.0" encoding="utf-8"?>
<svg xmlns="http://www.w3.org/2000/svg" viewBox="-40.297 -43.264 212.338 53.597" xmlns:bx="https://boxy-svg.com">
  <g>
    <path d="M 13.618 -9.882 L 40.118 43.118 L -12.882 43.118 L 13.618 -9.882 Z" bx:shape="triangle -12.882 -9.882 53 53 0.5 0 1@8c40fda3" style="stroke: rgb(0, 0, 0); stroke-opacity: 0; stroke-width: 1; transform-box: fill-box; transform-origin: 50% 50%; fill: rgb(255, 255, 255);" transform="matrix(-1, 0, 0, -1, -27.236, -33.236)"/>
    <path d="M 13.841 2.101 L 30.097 -33.459 L 33.805 -33.459 L 50.061 2.101 L 46.099 2.101 L 31.163 -31.275 L 32.687 -31.275 L 17.752 2.101 L 13.841 2.101 Z M 20.241 -7.399 L 21.359 -10.447 L 42.035 -10.447 L 43.152 -7.399 L 20.241 -7.399 Z M 55.183 2.101 L 55.183 -24.569 L 58.637 -24.569 L 58.637 -17.305 L 58.282 -18.575 C 59.027 -20.607 60.28 -22.156 62.041 -23.223 C 63.802 -24.29 65.986 -24.823 68.594 -24.823 L 68.594 -21.318 C 68.459 -21.318 68.323 -21.326 68.188 -21.343 C 68.052 -21.36 67.916 -21.369 67.781 -21.369 C 64.97 -21.369 62.769 -20.514 61.177 -18.803 C 59.586 -17.093 58.79 -14.663 58.79 -11.513 L 58.79 2.101 L 55.183 2.101 Z M 85.979 2.355 C 83.338 2.355 80.976 1.771 78.893 0.602 C 76.81 -0.566 75.176 -2.175 73.991 -4.224 C 72.806 -6.273 72.213 -8.618 72.213 -11.259 C 72.213 -13.935 72.806 -16.289 73.991 -18.321 C 75.176 -20.353 76.81 -21.945 78.893 -23.096 C 80.976 -24.247 83.338 -24.823 85.979 -24.823 C 88.248 -24.823 90.297 -24.383 92.126 -23.502 C 93.955 -22.621 95.394 -21.301 96.444 -19.54 L 93.752 -17.711 C 92.837 -19.066 91.703 -20.065 90.348 -20.708 C 88.993 -21.351 87.52 -21.673 85.929 -21.673 C 84.032 -21.673 82.322 -21.241 80.798 -20.378 C 79.274 -19.515 78.072 -18.304 77.191 -16.746 C 76.31 -15.188 75.87 -13.359 75.87 -11.259 C 75.87 -9.16 76.31 -7.331 77.191 -5.773 C 78.072 -4.215 79.274 -3.004 80.798 -2.141 C 82.322 -1.277 84.032 -0.845 85.929 -0.845 C 87.52 -0.845 88.993 -1.167 90.348 -1.811 C 91.703 -2.454 92.837 -3.436 93.752 -4.757 L 96.444 -2.928 C 95.394 -1.201 93.955 0.112 92.126 1.009 C 90.297 1.906 88.248 2.355 85.979 2.355 Z M 103.104 2.101 L 103.104 -35.593 L 106.711 -35.593 L 106.711 2.101 L 103.104 2.101 Z M 128.096 2.355 C 125.319 2.355 122.88 1.771 120.78 0.602 C 118.681 -0.566 117.038 -2.175 115.853 -4.224 C 114.668 -6.273 114.075 -8.618 114.075 -11.259 C 114.075 -13.901 114.642 -16.238 115.777 -18.27 C 116.911 -20.302 118.469 -21.902 120.45 -23.07 C 122.431 -24.239 124.658 -24.823 127.13 -24.823 C 129.637 -24.823 131.864 -24.256 133.811 -23.121 C 135.758 -21.986 137.291 -20.395 138.408 -18.346 C 139.525 -16.297 140.084 -13.935 140.084 -11.259 C 140.084 -11.09 140.076 -10.912 140.059 -10.726 C 140.042 -10.54 140.034 -10.345 140.034 -10.142 L 116.818 -10.142 L 116.818 -12.834 L 138.103 -12.834 L 136.681 -11.767 C 136.681 -13.698 136.266 -15.417 135.436 -16.924 C 134.607 -18.431 133.481 -19.607 132.058 -20.454 C 130.635 -21.301 128.993 -21.724 127.13 -21.724 C 125.301 -21.724 123.659 -21.301 122.203 -20.454 C 120.746 -19.607 119.612 -18.422 118.799 -16.898 C 117.986 -15.374 117.58 -13.63 117.58 -11.666 L 117.58 -11.107 C 117.58 -9.075 118.029 -7.289 118.926 -5.748 C 119.823 -4.207 121.076 -3.004 122.685 -2.141 C 124.294 -1.277 126.131 -0.845 128.197 -0.845 C 129.823 -0.845 131.339 -1.133 132.744 -1.709 C 134.149 -2.285 135.36 -3.166 136.376 -4.351 L 138.408 -2.014 C 137.223 -0.591 135.741 0.492 133.963 1.237 C 132.185 1.982 130.229 2.355 128.096 2.355 Z M 147.458 2.101 L 147.458 -24.569 L 150.912 -24.569 L 150.912 -17.254 L 150.353 -18.625 C 151.2 -20.556 152.554 -22.071 154.417 -23.172 C 156.28 -24.273 158.498 -24.823 161.072 -24.823 C 163.239 -24.823 165.144 -24.408 166.787 -23.578 C 168.43 -22.749 169.717 -21.487 170.648 -19.794 C 171.579 -18.101 172.045 -15.967 172.045 -13.393 L 172.045 2.101 L 168.438 2.101 L 168.438 -13.037 C 168.438 -15.848 167.735 -17.974 166.33 -19.413 C 164.925 -20.852 162.952 -21.572 160.412 -21.572 C 158.515 -21.572 156.864 -21.191 155.459 -20.429 C 154.053 -19.667 152.969 -18.566 152.207 -17.127 C 151.445 -15.688 151.064 -13.952 151.064 -11.92 L 151.064 2.101 L 147.458 2.101 Z" style="text-wrap-mode: nowrap; stroke-width: 1; fill: rgb(255, 255, 255);"/>
  </g>
</svg>