<?xml version="1.0" encoding="utf-8"?>
<svg xmlns="http://www.w3.org/2000/svg" viewBox="-48.868 -49.692 229.175 66.147" xmlns:bx="https://boxy-svg.com">
  <g>
    <path d="M 16.659 -15.759 L 49.359 49.641 L -16.041 49.641 L 16.659 -15.759 Z" bx:shape="triangle -16.041 -15.759 65.4 65.4 0.5 0 1@c48f338d" style="stroke: rgb(0, 0, 0); stroke-opacity: 0; transform-box: fill-box; transform-origin: 50% 50%;" transform="matrix(-1, 0, 0, -1, -33.318001, -33.88201)"/>
    <path d="M 21.889 1.779 L 38.145 -33.781 L 41.853 -33.781 L 58.109 1.779 L 54.147 1.779 L 39.211 -31.597 L 40.735 -31.597 L 25.8 1.779 L 21.889 1.779 Z M 28.289 -7.721 L 29.407 -10.769 L 50.083 -10.769 L 51.2 -7.721 L 28.289 -7.721 Z M 63.231 1.779 L 63.231 -24.891 L 66.685 -24.891 L 66.685 -17.627 L 66.33 -18.897 C 67.075 -20.929 68.328 -22.478 70.089 -23.545 C 71.85 -24.612 74.034 -25.145 76.642 -25.145 L 76.642 -21.64 C 76.507 -21.64 76.371 -21.648 76.236 -21.665 C 76.1 -21.682 75.964 -21.691 75.829 -21.691 C 73.018 -21.691 70.817 -20.836 69.225 -19.125 C 67.634 -17.415 66.838 -14.985 66.838 -11.835 L 66.838 1.779 L 63.231 1.779 Z M 94.027 2.033 C 91.386 2.033 89.024 1.449 86.941 0.28 C 84.858 -0.888 83.224 -2.497 82.039 -4.546 C 80.854 -6.595 80.261 -8.94 80.261 -11.581 C 80.261 -14.257 80.854 -16.611 82.039 -18.643 C 83.224 -20.675 84.858 -22.267 86.941 -23.418 C 89.024 -24.569 91.386 -25.145 94.027 -25.145 C 96.296 -25.145 98.345 -24.705 100.174 -23.824 C 102.003 -22.943 103.442 -21.623 104.492 -19.862 L 101.8 -18.033 C 100.885 -19.388 99.751 -20.387 98.396 -21.03 C 97.041 -21.673 95.568 -21.995 93.977 -21.995 C 92.08 -21.995 90.37 -21.563 88.846 -20.7 C 87.322 -19.837 86.12 -18.626 85.239 -17.068 C 84.358 -15.51 83.918 -13.681 83.918 -11.581 C 83.918 -9.482 84.358 -7.653 85.239 -6.095 C 86.12 -4.537 87.322 -3.326 88.846 -2.463 C 90.37 -1.599 92.08 -1.167 93.977 -1.167 C 95.568 -1.167 97.041 -1.489 98.396 -2.133 C 99.751 -2.776 100.885 -3.758 101.8 -5.079 L 104.492 -3.25 C 103.442 -1.523 102.003 -0.21 100.174 0.687 C 98.345 1.584 96.296 2.033 94.027 2.033 Z M 111.152 1.779 L 111.152 -35.915 L 114.759 -35.915 L 114.759 1.779 L 111.152 1.779 Z M 136.144 2.033 C 133.367 2.033 130.928 1.449 128.828 0.28 C 126.729 -0.888 125.086 -2.497 123.901 -4.546 C 122.716 -6.595 122.123 -8.94 122.123 -11.581 C 122.123 -14.223 122.69 -16.56 123.825 -18.592 C 124.959 -20.624 126.517 -22.224 128.498 -23.392 C 130.479 -24.561 132.706 -25.145 135.178 -25.145 C 137.685 -25.145 139.912 -24.578 141.859 -23.443 C 143.806 -22.308 145.339 -20.717 146.456 -18.668 C 147.573 -16.619 148.132 -14.257 148.132 -11.581 C 148.132 -11.412 148.124 -11.234 148.107 -11.048 C 148.09 -10.862 148.082 -10.667 148.082 -10.464 L 124.866 -10.464 L 124.866 -13.156 L 146.151 -13.156 L 144.729 -12.089 C 144.729 -14.02 144.314 -15.739 143.484 -17.246 C 142.655 -18.753 141.529 -19.929 140.106 -20.776 C 138.683 -21.623 137.041 -22.046 135.178 -22.046 C 133.349 -22.046 131.707 -21.623 130.251 -20.776 C 128.794 -19.929 127.66 -18.744 126.847 -17.22 C 126.034 -15.696 125.628 -13.952 125.628 -11.988 L 125.628 -11.429 C 125.628 -9.397 126.077 -7.611 126.974 -6.07 C 127.871 -4.529 129.124 -3.326 130.733 -2.463 C 132.342 -1.599 134.179 -1.167 136.245 -1.167 C 137.871 -1.167 139.387 -1.455 140.792 -2.031 C 142.197 -2.607 143.408 -3.488 144.424 -4.673 L 146.456 -2.336 C 145.271 -0.913 143.789 0.17 142.011 0.915 C 140.233 1.66 138.277 2.033 136.144 2.033 Z M 155.506 1.779 L 155.506 -24.891 L 158.96 -24.891 L 158.96 -17.576 L 158.401 -18.947 C 159.248 -20.878 160.602 -22.393 162.465 -23.494 C 164.328 -24.595 166.546 -25.145 169.12 -25.145 C 171.287 -25.145 173.192 -24.73 174.835 -23.9 C 176.478 -23.071 177.765 -21.809 178.696 -20.116 C 179.627 -18.423 180.093 -16.289 180.093 -13.715 L 180.093 1.779 L 176.486 1.779 L 176.486 -13.359 C 176.486 -16.17 175.783 -18.296 174.378 -19.735 C 172.973 -21.174 171 -21.894 168.46 -21.894 C 166.563 -21.894 164.912 -21.513 163.507 -20.751 C 162.101 -19.989 161.017 -18.888 160.255 -17.449 C 159.493 -16.01 159.112 -14.274 159.112 -12.242 L 159.112 1.779 L 155.506 1.779 Z" style="text-wrap-mode: nowrap;"/>
  </g>
</svg>